# xmcd
#
# Track frame offsets: 
#        150
#        19300
#        40332
#        59085
#        80737
#        96505
#        116885
#        138825
#        157052
#        173937
#
# Disc length: 2588 seconds
#
# Revision: 3
# Processed by: cddbd v1.4PL0 Copyright (c) Steve Scherf et al.
# Submitted via: ExactAudioCopy v0.90b4
#
DISCID=940a1a0a
DTITLE=Ray Parker JR. - After Dark
DYEAR=1900
DGENRE=Blues
TTITLE0=Don't Think That Man Should sleep Alone
TTITLE1=Over you (duet with Natalie Cole)
TTITLE2=Lovin' You
TTITLE3=You shoulda kept a spare
TTITLE4=The past
TTITLE5=You make my nature dance
TTITLE6=Perfect lovers
TTITLE7=After Midnite
TTITLE8=I love your daughter
TTITLE9=After Dark
EXTD=
EXTT0=
EXTT1=
EXTT2=
EXTT3=
EXTT4=
EXTT5=
EXTT6=
EXTT7=
EXTT8=
EXTT9=
PLAYORDER=
